<?xml version="1.0" encoding="utf-8"?>
<?xml-stylesheet href="../main.css" type="text/svg"?>
<!-- Generator: Adobe Illustrator 23.1.1, SVG Export Plug-In . SVG Version: 6.00 Build 0)  -->
<svg version="1.1" id="character02" xmlns="http://www.w3.org/2000/svg" xmlns:xlink="http://www.w3.org/1999/xlink" x="0px"
	 y="0px" viewBox="0 0 600 600" style="enable-background:new 0 0 600 600;" xml:space="preserve">
<style type="text/css">
	.st0{fill:#ECBCB4;stroke:#000000;stroke-width:2.7701;stroke-miterlimit:10;}
	.st1{fill:#FFFFFF;stroke:#000000;stroke-width:3;stroke-miterlimit:10;}
	.st2{fill:#000000;}
	.st3{fill:url(#glasses_1_);stroke:#000000;stroke-width:2.7701;stroke-miterlimit:10;}
	.st4{fill:none;stroke:#000000;stroke-width:2.7701;stroke-miterlimit:10;}
	.st5{stroke:#000000;stroke-width:1.3851;stroke-miterlimit:10;}
	.st6{fill:none;stroke:#000000;stroke-width:2.2465;stroke-miterlimit:10;}
</style>
<path id="face" class="st0" d="M145,288.8c0,0-2.1-22.1-5.3-52s-3.9-30.6-3.6-47.4s6.1-43.4,11.4-55.2c5.3-11.8,15.7-39.9,28.5-59.1
	s18.5-24.6,37-30.3s50.6-10.3,63.4-11.4s46.3-4.3,65.5-2.1s46.3,5.7,61.6,16c15.3,10.3,24.6,21.7,34.9,35.6
	c10.3,13.9,24.6,50.6,29.6,72.6c5,22.1-2.1,123.6-2.1,123.6s-6.8,16.4-3.9,18.2c2.8,1.8,7.1-3.9,10.3-2.1c3.2,1.8,10,9.3,10,16.4
	c0,7.1,0,11.8-0.4,25.6c-0.4,13.9,0.4,36.3,0.4,36.3s-2.5,34.2-3.2,36.3c-0.7,2.1-15.7,9.3-18.2,7.8c-2.5-1.4-3.2,5.7-3.2,5.7
	s-15.7,58.4-31.7,82.3c-16,23.9-37.4,56.8-66.6,63.6c-29.2,6.8-68,4.8-85.4-0.9c-17.4-5.7-42-17.1-61.6-37
	c-19.6-19.9-30.6-42.4-38.8-61.6s-13.5-44.5-16-44.9s-7.1,0.7-7.1,0.7s-13.2-1.4-16.4-12.5c-3.2-11-9.3-25.6-12.8-35.3
	c-3.6-9.6-8.2-22.8-7.1-28.1c1.1-5.3-1.8-6.4-1.8-6.4s3.6-26,12.5-33.5s9.3-7.1,14.6-5.3c5.3,1.8,11,8.2,11,4.6
	C150.3,305.6,145,288.8,145,288.8z"/>
<path id="leftEye" class="st1" d="M186.4,310.2c0,0,19.1-20.7,41.3-20.5s42.1,19.5,42.1,19.5s-18.6,20.8-41.5,20.5
	S186.4,310.2,186.4,310.2z"/>
<ellipse id="leftEyeBall" transform="matrix(0.1818 -0.9833 0.9833 0.1818 -118.4619 477.5386)" class="st2" cx="227.7" cy="310" rx="19.2" ry="19.2"/>
<path id="rightEye" class="st1" d="M428.4,310.2c0,0-19.1-20.7-41.3-20.5s-42.1,19.5-42.1,19.5s18.6,20.8,41.5,20.5
	C409.4,329.4,428.4,310.2,428.4,310.2z"/>
<ellipse id="rightEyeBall" transform="matrix(0.1818 -0.9833 0.9833 0.1818 11.2219 633.3999)" class="st2" cx="386.2" cy="310" rx="19.2" ry="19.2"/>
<g>
	<path id="leftEyebrow" d="M176.8,286 Q260,250 280,286"/>
</g>
<g>
	<path id="rightEyebrow" d="M329,286 Q349,250 433.7,286"/>
</g>
<linearGradient id="glasses_1_" gradientUnits="userSpaceOnUse" x1="306.4322" y1="377.2315" x2="306.4322" y2="247.9159">
	<stop  offset="0.2807" style="stop-color:#2484C6;stop-opacity:0"/>
	<stop  offset="1" style="stop-color:#2484C6"/>
</linearGradient>
<path id="glasses" class="st3" d="M197.4,255.1l39.7-1.5l156.2-5.8c0,0,46.9,4.5,56,25.3c9,20.8,13.5,29.8,9.9,46.9
	c-3.6,17.1-6.1,27.2-15.6,36.1c-9.5,8.9-17.3,14.2-28.4,14.2c-11,0-29.9-4.2-43.1-13.7c-13.1-9.5-36.2-34.1-42-47.3s-7.4-31-7.4-31
	l-30.5,0.5c0,0,3.7,24.7-16.8,49.4s-20.5,25.7-33.1,36.2c-12.6,10.5-35.7,12.6-35.7,12.6s-30.5-3.7-41.5-21s-12.1-17.3-12.1-31
	c0-13.7-2.1-25.2,1.1-33.1c3.2-7.9,1.6-14.2,20-24.7S197.4,255.1,197.4,255.1z"/>
<path id="normalLip" class="st4" d="M236,453 Q310,471.5 392.6,453"/>
<path id="nose" class="st4" d="M312.1,311.9c0,0-68.4,72.5-15.5,75.6s32.1-18.6,32.1-18.6"/>
<path id="hair" class="st5" d="M148.5,300.1c0,0,2.9-37.4,12.4-45.8c9.5-8.4,14.2-16.8,14.2-16.8s-1.6-41.5,2.6-46.2
	c4.2-4.7,11.6-24.7,28.4-31.5s59.9-24.2,79.9-16.8c20,7.4,36.8-7.9,36.8-7.9s58.3-10,81.4,5.8s29.9,21.5,34.2,29.9
	c4.2,8.4,7.4,44.1,4.7,51.5c-2.6,7.4,17.3,38.9,17.3,38.9l5.3,12.6c0,0,19.5-130.5-14.6-175.2s-38.5-49.8-77.9-61.8
	c-39.8-12.1-78.4-7.2-126.6,0.5c-43.7,7-69.8,14.6-91.6,74.6c-18.4,50.6-21.3,65.5-19.8,88.1s6.3,45.4,8.4,65.4
	S148.5,300.1,148.5,300.1z"/>
<path id="rightEar" class="st6" d="M466,343.3c0,0,11.2,34.2-0.9,47.2c-12,13-13.5,0.9-12.9-3.2c0.6-4.1,3.6-13.3,6.2-8.2
	c2.6,5-1.5,10-1.5,10"/>
<path id="leftEar" class="st6" d="M139.4,346.3c0,0-11.2,34.2,0.9,47.2s13.5,0.9,12.9-3.2c-0.6-4.1-3.6-13.3-6.2-8.2s1.5,10,1.5,10"
	/>
</svg>
